<?xml version="1.0" encoding="UTF-8"?>
<svg version="1.1" xmlns="http://www.w3.org/2000/svg" width="1024" height="1024">
<path d="M0 0 C337.92 0 675.84 0 1024 0 C1024 337.92 1024 675.84 1024 1024 C686.08 1024 348.16 1024 0 1024 C0 686.08 0 348.16 0 0 Z " fill="#050505" transform="translate(0,0)"/>
<path d="M0 0 C1.0630687 -0.00018127 1.0630687 -0.00018127 2.14761353 -0.00036621 C12.76375491 0.02542915 22.22637336 0.85209452 32.3125 4.375 C34.62463003 5.04294867 36.93712051 5.70965111 39.25 6.375 C44.584829 7.98334683 49.09359305 10.0554858 54.3125 12.375 C54.3125 24.255 54.3125 36.135 54.3125 48.375 C50.3125 48.375 50.3125 48.375 48.63671875 46.8359375 C48.09660156 46.14757812 47.55648437 45.45921875 47 44.75 C37.6911649 33.62242191 24.03709733 25.64260365 9.3972168 24.05981445 C6.27841143 23.90215725 3.18518311 23.85589226 0.0625 23.875 C-1.58903076 23.88466797 -1.58903076 23.88466797 -3.27392578 23.89453125 C-18.32324892 24.23177098 -30.38631667 29.50455632 -40.9375 40.5 C-50.61554442 52.78690857 -54.26065785 67.33103116 -54.125 82.6875 C-54.11815186 83.87649902 -54.11130371 85.06549805 -54.10424805 86.29052734 C-53.94647573 94.91895926 -53.16696612 102.38596266 -49.6875 110.375 C-49.336875 111.19226563 -48.98625 112.00953125 -48.625 112.8515625 C-42.30435413 125.62453437 -30.91817734 134.61115953 -17.6875 139.375 C-10.98247518 141.12933038 -4.41380936 141.76103095 2.5 141.75 C3.85822876 141.75084595 3.85822876 141.75084595 5.24389648 141.75170898 C13.4531433 141.61900938 20.54304185 139.9510254 28.3125 137.375 C29.6325 137.045 30.9525 136.715 32.3125 136.375 C32.3125 124.825 32.3125 113.275 32.3125 101.375 C26.0940625 101.5915625 26.0940625 101.5915625 19.75 101.8125 C17.80951782 101.87715454 17.80951782 101.87715454 15.82983398 101.94311523 C14.79157471 101.98122314 13.75331543 102.01933105 12.68359375 102.05859375 C11.63099365 102.09525146 10.57839355 102.13190918 9.49389648 102.16967773 C6.08349357 102.38977971 2.69565046 102.89169279 -0.6875 103.375 C-0.6875 95.125 -0.6875 86.875 -0.6875 78.375 C2.2825 78.705 5.2525 79.035 8.3125 79.375 C10.45707511 79.47713576 12.60348363 79.54786584 14.75024414 79.58032227 C15.93078873 79.60026749 17.11133331 79.62021271 18.32765198 79.64076233 C19.57175339 79.65747482 20.8158548 79.67418732 22.09765625 79.69140625 C23.39448837 79.71218735 24.6913205 79.73296844 26.02745056 79.75437927 C29.44513091 79.80909819 32.86286618 79.85872476 36.28063965 79.90722656 C39.78024071 79.95781239 43.27976379 80.0133032 46.77929688 80.06835938 C53.62363011 80.17532536 60.46803406 80.2769022 67.3125 80.375 C66.75957804 83.27449622 66.11951681 86.02367077 65.27587891 88.859375 C63.80527492 94.70156114 63.95584643 100.63364982 63.8984375 106.625 C63.87907135 107.87885498 63.8597052 109.13270996 63.8397522 110.42456055 C63.79033066 113.73211676 63.74896547 117.03964086 63.71160889 120.34735107 C63.67135366 123.73296811 63.62036038 127.11842232 63.5703125 130.50390625 C63.47455308 137.12749886 63.38942556 143.75116332 63.3125 150.375 C54.31942027 154.10265352 45.38250131 157.47976799 36 160.125 C35.00677734 160.41503906 34.01355469 160.70507812 32.99023438 161.00390625 C30.10632027 161.8322042 27.21555221 162.61672481 24.3125 163.375 C23.53036133 163.58398926 22.74822266 163.79297852 21.94238281 164.00830078 C14.66979439 165.72012797 7.34116445 165.74724107 -0.08935547 165.74560547 C-2.28823973 165.74995204 -4.48506604 165.78630461 -6.68359375 165.82421875 C-31.80515479 166.02428689 -51.83774289 155.86748799 -69.59375 138.51171875 C-84.96342098 122.19890887 -90.37905419 100.13617802 -89.9375 78.32421875 C-89.11944051 56.93605332 -78.51572707 36.3959512 -63.125 21.8125 C-45.52191744 5.7923088 -23.3214077 -0.06116021 0 0 Z " fill="#F9F9F9" transform="translate(255.6875,410.625)"/>
<path d="M0 0 C1.19044922 -0.03287109 2.38089844 -0.06574219 3.60742188 -0.09960938 C17.45099588 -0.18241487 30.72866229 5.1793711 41 14.5625 C54.15825655 28.71383252 56.3125 45.87297605 56.3125 64.4375 C27.6025 64.4375 -1.1075 64.4375 -30.6875 64.4375 C-27.21522867 78.32658531 -24.18146447 86.15654577 -12.6875 94.4375 C-3.14883759 100.06985304 9.20808345 99.84572511 19.8203125 97.7421875 C28.7125415 95.03585694 36.06981041 90.28432085 42.3125 83.4375 C46.33259319 85.13830866 49.27413341 87.32847373 52.3125 90.4375 C51.91529101 98.52511648 46.24246528 104.88623897 40.5625 110.25 C30.01849952 118.90096564 16.51355966 122.00437922 3.1875 121.875 C2.09163574 121.86742676 0.99577148 121.85985352 -0.13330078 121.85205078 C-18.68386378 121.47825653 -33.59744459 115.91830333 -46.6875 102.4375 C-51.67361498 96.88301958 -55.7564538 91.31298604 -58.6875 84.4375 C-59.05875 83.65375 -59.43 82.87 -59.8125 82.0625 C-63.89546796 69.81359612 -64.1828973 55.87227545 -60.6875 43.4375 C-60.44257813 42.48488281 -60.19765625 41.53226562 -59.9453125 40.55078125 C-57.65350242 32.6308535 -53.84097303 26.80888365 -48.6875 20.4375 C-48.07132812 19.6021875 -47.45515625 18.766875 -46.8203125 17.90625 C-40.49995692 10.59038054 -30.88432628 5.19797819 -21.6875 2.4375 C-20.553125 2.08429688 -19.41875 1.73109375 -18.25 1.3671875 C-12.24649465 -0.09149693 -6.14532003 0.02946611 0 0 Z " fill="#F9F9F9" transform="translate(409.6875,454.5625)"/>
<path d="M0 0 C5.20713879 4.75800552 8.83727515 9.84274655 12.0859375 16.0234375 C12.42818359 16.64476562 12.77042969 17.26609375 13.12304688 17.90625 C13.45498047 18.53015625 13.78691406 19.1540625 14.12890625 19.796875 C14.42176514 20.34520996 14.71462402 20.89354492 15.01635742 21.45849609 C19.39708662 32.33453843 17.8984375 40.00737592 17.8984375 52.6484375 C-10.4815625 52.6484375 -38.8615625 52.6484375 -68.1015625 52.6484375 C-65.04782353 64.8633934 -62.25201052 73.39811748 -52.1015625 80.6484375 C-51.3384375 81.2053125 -50.5753125 81.7621875 -49.7890625 82.3359375 C-39.66958527 87.27800778 -27.14306118 88.85416533 -16.2265625 85.4609375 C-14.83709449 84.89083135 -13.46182107 84.28509988 -12.1015625 83.6484375 C-11.27140625 83.29652344 -10.44125 82.94460938 -9.5859375 82.58203125 C-3.62672506 79.87897531 0.6103053 76.5755298 4.8984375 71.6484375 C8.82144022 73.47348659 11.63631022 75.83114576 14.8984375 78.6484375 C13.79421182 86.26619691 9.32863315 94.15437228 3.3359375 99.0234375 C-13.0527808 109.77952835 -31.61235855 111.37897909 -50.6328125 109.25390625 C-65.76248985 106.03261506 -80.6884794 97.16862568 -89.4765625 84.32421875 C-99.35955752 68.7342353 -101.79573096 50.44757354 -98.70605469 32.32910156 C-95.17557384 17.71899544 -85.18507321 5.34783625 -73.0390625 -3.1015625 C-50.65784489 -16.65638443 -20.91769155 -15.85950921 0 0 Z " fill="#F9F9F9" transform="translate(695.1015625,466.3515625)"/>
<path d="M0 0 C12.54 0 25.08 0 38 0 C37.01 5.28 36.02 10.56 35 16 C34.58575781 20.62698857 34.58575781 20.62698857 34.65942383 24.70117188 C34.65898575 25.43502609 34.65854767 26.16888031 34.65809631 26.92497253 C34.6601326 29.27320143 34.68320831 31.62065117 34.70703125 33.96875 C34.71264576 35.62739676 34.71690704 37.28604858 34.71989441 38.94470215 C34.73119756 43.25187596 34.7605342 47.55873276 34.79400635 51.86578369 C34.82502591 56.28417679 34.83846695 60.70262251 34.85351562 65.12109375 C34.88542228 73.74753923 34.93643589 82.37372988 35 91 C58.76923433 72.23185176 58.76923433 72.23185176 70 46 C84.85 46 99.7 46 115 46 C113.09671196 49.80657608 112.52581252 50.63003558 109.3125 52.9375 C98.66060149 60.94772768 88.8629267 70.03277175 79.16723633 79.15893555 C74.86438028 83.20830965 70.50321168 87.17298943 66 91 C67.7139522 94.98616312 70.37525103 98.20160824 73.0625 101.5625 C73.55492187 102.18382812 74.04734375 102.80515625 74.5546875 103.4453125 C78.22014214 108.05791304 81.94856947 112.61730316 85.6953125 117.1640625 C88.29905139 120.36798527 90.83780993 123.61837479 93.375 126.875 C100.43272108 135.91414031 107.84715769 144.64641786 115.46484375 153.21875 C117.37155292 155.43111484 119.17964616 157.71633004 121 160 C86.23185163 162.9974634 86.23185163 162.9974634 78.25146484 158.42529297 C74.36704612 154.21132419 72.80507508 149.04737744 71.06738281 143.67773438 C69.18118673 138.94584996 65.97529982 135.26542979 62.75 131.375 C61.61915786 129.96665452 60.48892888 128.55781643 59.359375 127.1484375 C58.81216797 126.47522461 58.26496094 125.80201172 57.70117188 125.10839844 C54.74736459 121.4475087 51.86627301 117.72968264 49 114 C48.43764648 113.29407715 47.87529297 112.5881543 47.29589844 111.86083984 C46 110 46 110 46 108 C45.45730469 108.48210937 44.91460938 108.96421875 44.35546875 109.4609375 C43.64003906 110.09257813 42.92460938 110.72421875 42.1875 111.375 C41.47980469 112.00148438 40.77210938 112.62796875 40.04296875 113.2734375 C38 115 38 115 35 117 C34.55083989 119.18785702 34.55083989 119.18785702 34.63671875 121.734375 C34.63599365 122.69480713 34.63526855 123.65523926 34.63452148 124.64477539 C34.65200439 125.66949951 34.6694873 126.69422363 34.6875 127.75 C34.696604 128.78954834 34.70570801 129.82909668 34.71508789 130.90014648 C34.84138439 138.75432428 35.54412512 146.27429898 37 154 C37.33 155.98 37.66 157.96 38 160 C25.46 160 12.92 160 0 160 C0.99 155.38 1.98 150.76 3 146 C3.93997859 138.84524519 4.1485049 131.83165033 4.14526367 124.62207031 C4.14862228 123.5311911 4.1519809 122.44031189 4.15544128 121.31637573 C4.16488162 117.736947 4.16689091 114.15756538 4.16796875 110.578125 C4.17118614 108.07004782 4.17455057 105.56197083 4.17805481 103.05389404 C4.1840288 97.80545754 4.18593958 92.55703284 4.18530273 87.30859375 C4.18476916 81.94332917 4.19180383 76.57813669 4.20581055 71.21289062 C4.22255406 64.70446087 4.22935594 58.19609568 4.22869301 51.68764496 C4.22986601 49.22072738 4.23424922 46.75380899 4.24202538 44.28690338 C4.28593584 28.91838668 3.74485123 14.9794049 0 0 Z " fill="#FAFAFA" transform="translate(738,412)"/>
<path d="M0 0 C-0.69281244 10.41607662 -2.3903387 20.69544198 -4 31 C-4.77601563 30.566875 -5.55203125 30.13375 -6.3515625 29.6875 C-14.69087123 25.38847689 -21.52339868 23.45756921 -31 25 C-34.21820163 26.17025514 -36.4899121 27.68931161 -39 30 C-39.55171875 30.50789063 -40.1034375 31.01578125 -40.671875 31.5390625 C-46.75112028 37.88916524 -50.08691744 46.9084065 -50.16113281 55.65405273 C-50.17074036 56.57278671 -50.1803479 57.49152069 -50.19024658 58.43809509 C-50.1966214 59.92086693 -50.1966214 59.92086693 -50.203125 61.43359375 C-50.21167511 62.97697166 -50.21167511 62.97697166 -50.22039795 64.55152893 C-50.22984353 66.73282852 -50.23638017 68.91414235 -50.24023438 71.09545898 C-50.24987283 74.39398055 -50.28087278 77.69186077 -50.3125 80.99023438 C-50.39242138 95.52175003 -50.39242138 95.52175003 -47.64746094 109.72680664 C-47 112 -47 112 -47 115 C-59.87 115 -72.74 115 -86 115 C-85.34902344 112.44765625 -84.69804687 109.8953125 -84.02734375 107.265625 C-80.73094981 92.15616361 -81.4425235 76.559332 -81.55047607 61.18286133 C-81.566526 57.9353997 -81.55651377 54.68823049 -81.54635715 51.44076157 C-81.53932698 48.25923497 -81.54727022 45.07787518 -81.55961418 41.89636993 C-81.56405103 40.40241388 -81.56453568 38.90843944 -81.56054878 37.41448212 C-81.54259661 24.78701943 -82.97999271 13.06002187 -87 1 C-75.45 1 -63.9 1 -52 1 C-51.67 8.26 -51.34 15.52 -51 23 C-49.72125 21.02 -48.4425 19.04 -47.125 17 C-37.08705902 2.18613571 -17.82394223 -8.75439206 0 0 Z " fill="#F9F9F9" transform="translate(580,457)"/>
<path d="M0 0 C1.12595581 0.01353516 1.12595581 0.01353516 2.2746582 0.02734375 C8.93493479 0.23631637 13.42257305 1.29757305 18.22265625 6.09765625 C23.92177828 12.91699883 26.5625 20.63678931 26.5625 29.4375 C8.4125 29.4375 -9.7375 29.4375 -28.4375 29.4375 C-27.30878373 18.15033728 -25.2024341 12.82341802 -17.4765625 4.9453125 C-11.91142508 0.83009594 -6.74007577 -0.09649141 0 0 Z " fill="#070707" transform="translate(408.4375,472.5625)"/>
<path d="M0 0 C6.51235238 3.93408318 9.87511824 9.79680832 12.66015625 16.6953125 C13.2890625 19.3828125 13.2890625 19.3828125 13.2890625 27.3828125 C-4.5309375 27.3828125 -22.3509375 27.3828125 -40.7109375 27.3828125 C-39.64803287 16.75376624 -37.96530404 10.29344495 -29.7109375 3.3828125 C-20.18290267 -3.20631964 -10.91622418 -4.95561923 0 0 Z " fill="#080808" transform="translate(668.7109375,474.6171875)"/>
<path d="M0 0 C0.144375 0.598125 0.28875 1.19625 0.4375 1.8125 C0.8872439 3.56150404 1.42892341 5.28677023 2 7 C1.34 7 0.68 7 0 7 C0 7.66 0 8.32 0 9 C-0.33 9.33 -0.66 9.66 -1 10 C-0.34 11.32 0.32 12.64 1 14 C0.34 14.66 -0.32 15.32 -1 16 C-3.31 13.03 -5.62 10.06 -8 7 C-6 3 -6 3 -3 1 C-2.34 1 -1.68 1 -1 1 C-0.67 0.67 -0.34 0.34 0 0 Z " fill="#141414" transform="translate(811,498)"/>
<path d="M0 0 C0 3.93169105 -1.39419615 5.16427228 -4 8 C-4.66 8 -5.32 8 -6 8 C-5.67 9.32 -5.34 10.64 -5 12 C-5.56589844 12.39832031 -6.13179688 12.79664063 -6.71484375 13.20703125 C-7.44832031 13.73683594 -8.18179687 14.26664062 -8.9375 14.8125 C-9.66839844 15.33457031 -10.39929688 15.85664063 -11.15234375 16.39453125 C-13.26883226 17.95867127 -13.26883226 17.95867127 -14 21 C-14.99 21.33 -15.98 21.66 -17 22 C-14.28722234 14.40956792 -8.79734 8.47526556 -3 3 C-2.401875 2.401875 -1.80375 1.80375 -1.1875 1.1875 C-0.795625 0.795625 -0.40375 0.40375 0 0 Z " fill="#ECECEC" transform="translate(370,466)"/>
<path d="M0 0 C0.33 0 0.66 0 1 0 C1.33 4.62 1.66 9.24 2 14 C2.33 13.34 2.66 12.68 3 12 C3.99 12 4.98 12 6 12 C6 11.34 6 10.68 6 10 C6.66 10 7.32 10 8 10 C7.36276989 13.47290409 5.97562783 15.84354753 4 18.75 C3.46375 19.54921875 2.9275 20.3484375 2.375 21.171875 C1.92125 21.77515625 1.4675 22.3784375 1 23 C0.67 23 0.34 23 0 23 C0 15.41 0 7.82 0 0 Z " fill="#1C1C1C" transform="translate(528,458)"/>
<path d="M0 0 C0.66 0.33 1.32 0.66 2 1 C-3.75 5.875 -3.75 5.875 -6 7 C-6.0825 7.94875 -6.165 8.8975 -6.25 9.875 C-6.4975 10.90625 -6.745 11.9375 -7 13 C-10.0625 14.875 -10.0625 14.875 -13 16 C-13.99 15.34 -14.98 14.68 -16 14 C-5.62642369 3.25740319 -5.62642369 3.25740319 0 0 Z " fill="#E4E4E4" transform="translate(623,463)"/>
<path d="M0 0 C1.14926266 0.95421808 2.29430541 1.91352045 3.4375 2.875 C4.07558594 3.40867187 4.71367188 3.94234375 5.37109375 4.4921875 C7 6 7 6 8 8 C4.7 8 1.4 8 -2 8 C-1.125 1.125 -1.125 1.125 0 0 Z " fill="#F1F1F1" transform="translate(851,564)"/>
<path d="M0 0 C0.66 0.33 1.32 0.66 2 1 C2 1.66 2 2.32 2 3 C1.34 3 0.68 3 0 3 C0 3.66 0 4.32 0 5 C-2.43096575 7.69142637 -5.05329426 9.89521018 -8 12 C-8.66 11.01 -9.32 10.02 -10 9 C-8.71142987 7.68445979 -7.41904109 6.37265903 -6.125 5.0625 C-5.04605469 3.96615234 -5.04605469 3.96615234 -3.9453125 2.84765625 C-2 1 -2 1 0 0 Z " fill="#E9EAEA" transform="translate(788,490)"/>
<path d="M0 0 C1.32 0.66 2.64 1.32 4 2 C1.03 4.64 -1.94 7.28 -5 10 C-5.99 8.68 -6.98 7.36 -8 6 C-6.8125 4.5 -6.8125 4.5 -5 3 C-2.3125 2.8125 -2.3125 2.8125 0 3 C0 2.01 0 1.02 0 0 Z " fill="#141515" transform="translate(788,485)"/>
<path d="M0 0 C2 2 2 2 2.1875 5.5625 C2 9 2 9 1 10 C0.63239269 12.32817964 0.29758419 14.6618385 0 17 C-1.5625 16 -1.5625 16 -3 14 C-2.75277795 8.97315167 -1.7732399 4.72863973 0 0 Z " fill="#1B1B1B" transform="translate(532,498)"/>
<path d="M0 0 C1.32 0.66 2.64 1.32 4 2 C1 4 1 4 -2 4 C-2 4.66 -2 5.32 -2 6 C-2.66 6 -3.32 6 -4 6 C-4.33 7.32 -4.66 8.64 -5 10 C-7.31 10.33 -9.62 10.66 -12 11 C-9.72403696 8.66678003 -7.33714502 6.5100704 -4.875 4.375 C-2.38509932 2.24398756 -2.38509932 2.24398756 0 0 Z " fill="#E2E2E2" transform="translate(452,538)"/>
<path d="M0 0 C0.99 1.98 1.98 3.96 3 6 C-1.24171294 7.13112345 -3.09340991 7.08351471 -7 5 C-2.25 0 -2.25 0 0 0 Z " fill="#1D1D1D" transform="translate(784,520)"/>
<path d="M0 0 C0.33 0.66 0.66 1.32 1 2 C0.01 3.485 0.01 3.485 -1 5 C-0.34 5.33 0.32 5.66 1 6 C0.67 7.65 0.34 9.3 0 11 C-0.99 11.33 -1.98 11.66 -3 12 C-3 11.34 -3 10.68 -3 10 C-3.99 10.33 -4.98 10.66 -6 11 C-4.54955729 6.89041233 -2.48889248 3.56741255 0 0 Z " fill="#181818" transform="translate(214,451)"/>
<path d="M0 0 C0.33 0 0.66 0 1 0 C2.09845718 4.32059823 3.17812739 8.61667943 4 13 C3.01 13.495 3.01 13.495 2 14 C1.67 12.35 1.34 10.7 1 9 C0.01 9 -0.98 9 -2 9 C-2.125 5.625 -2.125 5.625 -2 2 C-1.34 1.34 -0.68 0.68 0 0 Z " fill="#1B1B1B" transform="translate(348,528)"/>
<path d="M0 0 C1 3 1 3 0.4375 5.5 C-1.45183345 8.7857973 -3.55947594 9.57891398 -7 11 C-5.72278474 6.00724943 -3.82669043 3.42388092 0 0 Z " fill="#0F0F0F" transform="translate(390,479)"/>
<path d="M0 0 C3.39192363 0.59283621 5.2107757 1.76743189 7.75 4.0625 C8.67039063 4.88427734 8.67039063 4.88427734 9.609375 5.72265625 C10.29773438 6.35494141 10.29773438 6.35494141 11 7 C10.01 8.485 10.01 8.485 9 10 C5.79506864 7.50727561 2.72086797 5.02318663 0 2 C0 1.34 0 0.68 0 0 Z " fill="#151515" transform="translate(187,552)"/>
<path d="M0 0 C0.66 0.33 1.32 0.66 2 1 C1.57847656 1.47050781 1.15695312 1.94101562 0.72265625 2.42578125 C0.17480469 3.04839844 -0.37304688 3.67101562 -0.9375 4.3125 C-1.75541016 5.23482422 -1.75541016 5.23482422 -2.58984375 6.17578125 C-4.20081559 8.05241958 -4.20081559 8.05241958 -5 11 C-7.31 11 -9.62 11 -12 11 C-9.72403696 8.66678003 -7.33714502 6.5100704 -4.875 4.375 C-2.38509932 2.24398756 -2.38509932 2.24398756 0 0 Z " fill="#E0E0E0" transform="translate(700,538)"/>
<path d="M0 0 C0.99 0.33 1.98 0.66 3 1 C2.01 1.495 2.01 1.495 1 2 C1.33 3.65 1.66 5.3 2 7 C0.02 7.99 0.02 7.99 -2 9 C-2.66 8.34 -3.32 7.68 -4 7 C-3.8125 4.5 -3.8125 4.5 -3 2 C-2.01 1.34 -1.02 0.68 0 0 Z " fill="#121212" transform="translate(692,538)"/>
<path d="M0 0 C1.32 0.66 2.64 1.32 4 2 C1.69 4.31 -0.62 6.62 -3 9 C-3.66 7.68 -4.32 6.36 -5 5 C-4.34 5 -3.68 5 -3 5 C-2.87625 4.360625 -2.7525 3.72125 -2.625 3.0625 C-2.41875 2.381875 -2.2125 1.70125 -2 1 C-1.34 0.67 -0.68 0.34 0 0 Z " fill="#0F0F0F" transform="translate(800,473)"/>
<path d="M0 0 C0.66 0 1.32 0 2 0 C2.26218749 3.14624993 2.24754367 4.61837017 0.5 7.3125 C-0.2425 8.1478125 -0.2425 8.1478125 -1 9 C-2.32 8.34 -3.64 7.68 -5 7 C-4.21654285 5.82780457 -3.42297164 4.66236332 -2.625 3.5 C-2.18414063 2.8503125 -1.74328125 2.200625 -1.2890625 1.53125 C-0.65097656 0.77328125 -0.65097656 0.77328125 0 0 Z " fill="#151515" transform="translate(637,479)"/>
<path d="M0 0 C0 0.66 0 1.32 0 2 C-0.66 2 -1.32 2 -2 2 C-2 2.66 -2 3.32 -2 4 C-3.65 4 -5.3 4 -7 4 C-7.66 2.35 -8.32 0.7 -9 -1 C-5.23375329 -2.25541557 -3.62811066 -1.37061958 0 0 Z " fill="#111111" transform="translate(220,571)"/>
<path d="M0 0 C4 0 4 0 7 2 C6.34 2 5.68 2 5 2 C5.66 3.65 6.32 5.3 7 7 C6.01 7.66 5.02 8.32 4 9 C2.68 6.03 1.36 3.06 0 0 Z " fill="#F2F2F2" transform="translate(813,560)"/>
<path d="M0 0 C0.625 1.875 0.625 1.875 1 4 C0.34 4.66 -0.32 5.32 -1 6 C-1.66 5.67 -2.32 5.34 -3 5 C-2.34 6.32 -1.68 7.64 -1 9 C-4 9 -4 9 -7 8 C-6.02133662 6.85373678 -5.04205413 5.70800212 -4.0625 4.5625 C-3.51722656 3.92441406 -2.97195313 3.28632813 -2.41015625 2.62890625 C-1.63204305 1.73008851 -0.84063472 0.84063472 0 0 Z " fill="#1B1B1B" transform="translate(831,477)"/>
<path d="M0 0 C1.98 0.66 3.96 1.32 6 2 C4.35 3.98 2.7 5.96 1 8 C0.17361624 5.10765685 0 3.11257569 0 0 Z " fill="#EAEAEA" transform="translate(537,482)"/>
<path d="M0 0 C0.99 0.33 1.98 0.66 3 1 C4.1875 3.5625 4.1875 3.5625 5 6 C3.35 6.33 1.7 6.66 0 7 C0 6.01 0 5.02 0 4 C-0.99 4 -1.98 4 -3 4 C-3 3.34 -3 2.68 -3 2 C-2.01 1.34 -1.02 0.68 0 0 Z " fill="#ECECEC" transform="translate(699,472)"/>
<path d="M0 0 C0.66 0.33 1.32 0.66 2 1 C1.57847656 1.62648438 1.15695312 2.25296875 0.72265625 2.8984375 C0.17480469 3.71570313 -0.37304688 4.53296875 -0.9375 5.375 C-1.48277344 6.18710937 -2.02804687 6.99921875 -2.58984375 7.8359375 C-4.01093879 9.92719184 -4.01093879 9.92719184 -5 12 C-5.99 12.33 -6.98 12.66 -8 13 C-6.40956621 7.91061189 -3.2553049 4.12543357 0 0 Z " fill="#E2E2E2" transform="translate(361,475)"/>
<path d="M0 0 C0.99 0.66 1.98 1.32 3 2 C-0.96 3.98 -0.96 3.98 -5 6 C-5.66 5.34 -6.32 4.68 -7 4 C-7 3.34 -7 2.68 -7 2 C-3.6875 0.875 -3.6875 0.875 0 0 Z " fill="#131313" transform="translate(442,544)"/>
<path d="M0 0 C1.5 1.125 1.5 1.125 3 3 C3.1875 6.1875 3.1875 6.1875 3 9 C2.67 8.34 2.34 7.68 2 7 C1.34 7 0.68 7 0 7 C-0.66 6.34 -1.32 5.68 -2 5 C-1.46428571 1.46428571 -1.46428571 1.46428571 0 0 Z " fill="#0B0C0C" transform="translate(164,475)"/>
<path d="M0 0 C0.99 0.33 1.98 0.66 3 1 C-1.75 5.875 -1.75 5.875 -4 7 C-4.66 5.68 -5.32 4.36 -6 3 C-3.92446352 2.4465236 -2.15634036 2 0 2 C0 1.34 0 0.68 0 0 Z " fill="#191919" transform="translate(370,463)"/>
<path d="M0 0 C0 0.66 0 1.32 0 2 C-1.53125 3.2890625 -1.53125 3.2890625 -3.5 4.625 C-4.1496875 5.07101562 -4.799375 5.51703125 -5.46875 5.9765625 C-5.9740625 6.31429688 -6.479375 6.65203125 -7 7 C-7 3 -7 3 -5.75 1.25 C-4 0 -4 0 0 0 Z " fill="#131313" transform="translate(201,425)"/>
<path d="M0 0 C1.65 1.65 3.3 3.3 5 5 C4.01 5.495 4.01 5.495 3 6 C3 6.66 3 7.32 3 8 C2.01 8 1.02 8 0 8 C0 5.36 0 2.72 0 0 Z " fill="#1D1D1D" transform="translate(358,551)"/>
<path d="M0 0 C1.65 1.65 3.3 3.3 5 5 C4.34 5.66 3.68 6.32 3 7 C1.35 6.01 -0.3 5.02 -2 4 C-1.34 2.68 -0.68 1.36 0 0 Z " fill="#131313" transform="translate(795,536)"/>
<path d="M0 0 C2.02054804 1.64169528 4.02043058 3.30911778 6 5 C6 5.33 6 5.66 6 6 C4.02 6 2.04 6 0 6 C-1.24546405 3.50907189 -0.7767578 2.58919267 0 0 Z " fill="#E3E3E3" transform="translate(853,566)"/>
<path d="M0 0 C3 1 3 1 4.1875 3.0625 C4.455625 3.701875 4.72375 4.34125 5 5 C4.34 5.66 3.68 6.32 3 7 C3 6.34 3 5.68 3 5 C2.34 5 1.68 5 1 5 C0.67 5.66 0.34 6.32 0 7 C0 4.66666667 0 2.33333333 0 0 Z " fill="#161616" transform="translate(801,545)"/>
<path d="M0 0 C0.66 0 1.32 0 2 0 C1.65120368 3.25543229 0.97866739 4.01873107 -1.5625 6.25 C-2.366875 6.8275 -3.17125 7.405 -4 8 C-4.33 7.01 -4.66 6.02 -5 5 C-3.625 3.5 -3.625 3.5 -2 2 C-1.34 2 -0.68 2 0 2 C0 1.34 0 0.68 0 0 Z " fill="#0D0D0D" transform="translate(449,537)"/>
<path d="M0 0 C1.65 0 3.3 0 5 0 C5 0.66 5 1.32 5 2 C5.66 2 6.32 2 7 2 C6.67 2.99 6.34 3.98 6 5 C5.01 5.33 4.02 5.66 3 6 C2.01 4.02 1.02 2.04 0 0 Z " fill="#181818" transform="translate(456,477)"/>
<path d="M0 0 C3.94727588 -0.17942163 6.5980513 -0.09350689 10 2 C9.67 2.99 9.34 3.98 9 5 C4.545 3.02 4.545 3.02 0 1 C0 0.67 0 0.34 0 0 Z " fill="#212121" transform="translate(433,458)"/>
<path d="M0 0 C-2.88035092 2.24027294 -5.84866512 4.16172132 -9 6 C-9.33 5.01 -9.66 4.02 -10 3 C-6.68152292 -0.06320961 -4.44849969 -0.3033068 0 0 Z " fill="#181818" transform="translate(211,420)"/>
<path d="M0 0 C0.66 0.33 1.32 0.66 2 1 C1.67 1.33 1.34 1.66 1 2 C1.66 2.66 2.32 3.32 3 4 C-3.625 5.25 -3.625 5.25 -7 3 C-4.69631264 1.93347808 -2.35981813 0.93578995 0 0 Z " fill="#232323" transform="translate(313,562)"/>
<path d="M0 0 C0.75 1.6875 0.75 1.6875 1 4 C-0.9375 6.75 -0.9375 6.75 -3 9 C-3.33 6.69 -3.66 4.38 -4 2 C-2.68 1.34 -1.36 0.68 0 0 Z " fill="#141414" transform="translate(606,475)"/>
<path d="M0 0 C4.95 0 9.9 0 15 0 C13.515 1.485 13.515 1.485 12 3 C11.34 2.67 10.68 2.34 10 2 C8.29636178 1.77377919 6.58671299 1.59111527 4.875 1.4375 C3.96492187 1.35371094 3.05484375 1.26992188 2.1171875 1.18359375 C1.41851563 1.12300781 0.71984375 1.06242188 0 1 C0 0.67 0 0.34 0 0 Z " fill="#313131" transform="translate(654,576)"/>
<path d="M0 0 C0.99 0.99 1.98 1.98 3 3 C2.34 4.32 1.68 5.64 1 7 C0.01 6.34 -0.98 5.68 -2 5 C-2 4.01 -2 3.02 -2 2 C-1.34 2 -0.68 2 0 2 C0 1.34 0 0.68 0 0 Z " fill="#181818" transform="translate(603,546)"/>
<path d="M0 0 C0 0.66 0 1.32 0 2 C-3.08809695 3.76462683 -4.23312136 4 -8 4 C-8 3.34 -8 2.68 -8 2 C-4.77208445 -0.1519437 -3.71599191 -0.20086443 0 0 Z " fill="#191919" transform="translate(686,548)"/>
<path d="M0 0 C-0.125 1.875 -0.125 1.875 -1 4 C-4.0625 5.25 -4.0625 5.25 -7 6 C-5.52522876 2.59668175 -4.14385429 0 0 0 Z " fill="#111111" transform="translate(287,544)"/>
<path d="M0 0 C0.99 0.33 1.98 0.66 3 1 C3.6875 3.0625 3.6875 3.0625 4 5 C3.01 5.66 2.02 6.32 1 7 C-0.0625 5.1875 -0.0625 5.1875 -1 3 C-0.67 2.01 -0.34 1.02 0 0 Z " fill="#F1F1F1" transform="translate(794,529)"/>
<path d="M0 0 C1.32 0 2.64 0 4 0 C4.66 1.65 5.32 3.3 6 5 C3.36 4.34 0.72 3.68 -2 3 C-1.34 2.01 -0.68 1.02 0 0 Z " fill="#272727" transform="translate(284,411)"/>
<path d="M0 0 C0 0.66 0 1.32 0 2 C0.66 2.33 1.32 2.66 2 3 C0.25 3.75 0.25 3.75 -2 4 C-4.25 2.0625 -4.25 2.0625 -6 0 C-3 -1 -3 -1 0 0 Z " fill="#1D1D1D" transform="translate(691,571)"/>
<path d="M0 0 C0.66 0.33 1.32 0.66 2 1 C0.02 3.97 0.02 3.97 -2 7 C-2.99 6.67 -3.98 6.34 -5 6 C-2.25 1.125 -2.25 1.125 0 0 Z " fill="#141414" transform="translate(462,550)"/>
<path d="M0 0 C0.33 0.66 0.66 1.32 1 2 C2.32 2 3.64 2 5 2 C5.625 3.875 5.625 3.875 6 6 C5.34 6.66 4.68 7.32 4 8 C0 3.375 0 3.375 0 0 Z " fill="#1E1E1E" transform="translate(806,506)"/>
<path d="M0 0 C0.99 0.33 1.98 0.66 3 1 C1.625 2.5 1.625 2.5 0 4 C-0.66 4 -1.32 4 -2 4 C-2.66 5.32 -3.32 6.64 -4 8 C-4.66 7.67 -5.32 7.34 -6 7 C-4.02 4.69 -2.04 2.38 0 0 Z " fill="#D2D2D2" transform="translate(540,465)"/>
<path d="M0 0 C1.25541557 3.76624671 0.37061958 5.37188934 -1 9 C-1.33 8.34 -1.66 7.68 -2 7 C-2.99 6.67 -3.98 6.34 -5 6 C-3.35 4.02 -1.7 2.04 0 0 Z " fill="#262626" transform="translate(456,557)"/>
<path d="M0 0 C1.875 0.3125 1.875 0.3125 4 1 C4.66 1.99 5.32 2.98 6 4 C5.01 4.33 4.02 4.66 3 5 C1.5 3.625 1.5 3.625 0 2 C0 1.34 0 0.68 0 0 Z " fill="#111111" transform="translate(363,559)"/>
<path d="M0 0 C0.99 0 1.98 0 3 0 C3.33 0.66 3.66 1.32 4 2 C4.99 2 5.98 2 7 2 C6.34 3.32 5.68 4.64 5 6 C3.31237149 4.3545622 1.6459651 2.68711423 0 1 C0 0.67 0 0.34 0 0 Z " fill="#1C1C1C" transform="translate(632,536)"/>
<path d="M0 0 C0.99 0.33 1.98 0.66 3 1 C1.02579865 3.52259061 0.03254358 3.9929808 -3.1875 4.6875 C-4.5796875 4.8421875 -4.5796875 4.8421875 -6 5 C-2.25 1.125 -2.25 1.125 0 0 Z " fill="#222222" transform="translate(397,474)"/>
<path d="M0 0 C0.66 0.33 1.32 0.66 2 1 C1.01 1.99 0.02 2.98 -1 4 C-1.66 3.67 -2.32 3.34 -3 3 C-2.01 2.01 -1.02 1.02 0 0 Z M-4 4 C-3.67 4.66 -3.34 5.32 -3 6 C-3.66 5.67 -4.32 5.34 -5 5 C-4.67 4.67 -4.34 4.34 -4 4 Z M-7 6 C-6.34 6 -5.68 6 -5 6 C-5.33 6.99 -5.66 7.98 -6 9 C-6.66 8.34 -7.32 7.68 -8 7 C-7.67 6.67 -7.34 6.34 -7 6 Z " fill="#1C1C1C" transform="translate(845,465)"/>
<path d="M0 0 C2.8125 -0.3125 2.8125 -0.3125 6 0 C7.875 2.5 7.875 2.5 9 5 C5.54074837 3.7508258 2.85306797 2.32472205 0 0 Z " fill="#292929" transform="translate(681,458)"/>
<path d="M0 0 C0.66 1.32 1.32 2.64 2 4 C1.01 5.32 0.02 6.64 -1 8 C-1.66 6.35 -2.32 4.7 -3 3 C-2.01 2.01 -1.02 1.02 0 0 Z " fill="#161616" transform="translate(218,447)"/>
<path d="M0 0 C1.98 0.99 3.96 1.98 6 3 C5.01 3.99 4.02 4.98 3 6 C1.68 4.68 0.36 3.36 -1 2 C-0.67 1.34 -0.34 0.68 0 0 Z " fill="#171717" transform="translate(286,441)"/>
<path d="M0 0 C-0.33 1.98 -0.66 3.96 -1 6 C-1.66 5.67 -2.32 5.34 -3 5 C-3 4.34 -3 3.68 -3 3 C-3.99 2.67 -4.98 2.34 -6 2 C-2.25 0 -2.25 0 0 0 Z " fill="#0B0B0B" transform="translate(183,440)"/>
<path d="M0 0 C0.66 0.33 1.32 0.66 2 1 C0.63016497 4.16115776 0.0109362 4.9927092 -3 7 C-3.33 6.34 -3.66 5.68 -4 5 C-2.68 3.35 -1.36 1.7 0 0 Z " fill="#DEDEDE" transform="translate(390,475)"/>
<path d="M0 0 C0.99 0.33 1.98 0.66 3 1 C3.33 1.99 3.66 2.98 4 4 C2.02 4.99 2.02 4.99 0 6 C-0.66 5.34 -1.32 4.68 -2 4 C-1.34 2.68 -0.68 1.36 0 0 Z " fill="#EDEDED" transform="translate(225,436)"/>
</svg>
